<svg width="100" height="116" viewBox="0 0 100 116" fill="none" xmlns="http://www.w3.org/2000/svg">
<rect y="8" width="100" height="100" fill="white"/>
<path d="M29.0682 93V23.1818H43.8295V80.8295H73.7614V93H29.0682Z" fill="black"/>
<rect x="12" y="77.1421" width="20" height="42.5504" transform="rotate(-45 12 77.1421)" fill="white"/>
<rect x="12" y="77.1421" width="20" height="42.5504" transform="rotate(-45 12 77.1421)" fill="#279AF1"/>
<rect x="11" y="80.1421" width="20" height="42.5504" transform="rotate(-45 11 80.1421)" fill="#23B5D3"/>
<rect x="10" y="83.1421" width="20" height="42.5504" transform="rotate(-45 10 83.1421)" fill="#F7F7FF"/>
<rect x="10.0831" y="87.2252" width="20" height="29.6325" transform="rotate(-45 10.0831 87.2252)" fill="#070600"/>
<rect x="11.0644" y="92.2066" width="20" height="22.2095" transform="rotate(-45 11.0644 92.2066)" fill="#EA526F"/>
<rect x="10" y="93" width="48" height="15" fill="white"/>
<rect x="10" y="108" width="46" height="19" transform="rotate(-90 10 108)" fill="white"/>
</svg>
